# xmcd CD database file
# Copyright (C) 1993-1997  Ti Kan
#
# Track frame offsets:
#	200
#	27965
#	46400
#	66212
#	94230
#	106775
#	130820
#	148312
#	161620
#
# Disc length: 2441 seconds
#
# Revision: 1
# Processed by: cddbd v1.4b41PL1 Copyright (c) Steve Scherf et al.
# Submitted via: xmcd 2.1 PL2
#
DISCID=7b098709
DTITLE=Tom Principato - Hot Stuff!
DYEAR=1900
DGENRE=
TTITLE0=Congo Square (Re-mixed Version)
TTITLE1=Rolene (Previously Unreleased)
TTITLE2=Here I Come
TTITLE3=Blue Lights
TTITLE4=My Baby Worships Me (Unreleased Version)
TTITLE5=Never Make Your Move Too Soon
TTITLE6=I Know What You're Thinkin'
TTITLE7=Try To Reach You (Unreleased Version)
TTITLE8=Slipped, Tripped Fell In Love (Unedited Version)
EXTD=
EXTT0=
EXTT1=
EXTT2=
EXTT3=
EXTT4=
EXTT5=
EXTT6=
EXTT7=
EXTT8=
PLAYORDER=
